<?xml version="1.0" standalone="no"?>
<!DOCTYPE svg PUBLIC "-//W3C//DTD SVG 20010904//EN"
 "http://www.w3.org/TR/2001/REC-SVG-20010904/DTD/svg10.dtd">
<svg version="1.0" xmlns="http://www.w3.org/2000/svg"
 width="1353.000000pt" height="4000.000000pt" viewBox="0 0 1353.000000 4000.000000"
 preserveAspectRatio="xMidYMid meet">

<g transform="translate(0.000000,4000.000000) scale(0.100000,-0.100000)"
fill="#000000" stroke="none">
<path d="M6624 39677 c-8 -13 -62 -16 -404 -21 -217 -4 -447 -9 -510 -12 -63
-2 -216 -9 -340 -14 -259 -11 -481 -25 -660 -40 -69 -6 -152 -13 -185 -16 -33
-2 -73 -6 -90 -9 -16 -3 -82 -10 -145 -16 -171 -16 -180 -17 -245 -28 -56 -10
-128 -20 -185 -27 -29 -3 -104 -14 -128 -18 -10 -2 -38 -6 -63 -10 -105 -15
-272 -48 -439 -85 -612 -137 -1089 -328 -1434 -574 -321 -228 -551 -523 -649
-832 l-26 -80 -5 -570 c-11 -1125 -65 -2396 -156 -3652 -30 -418 -47 -655 -60
-818 -5 -71 -15 -191 -20 -265 -6 -74 -15 -187 -20 -250 -5 -63 -14 -176 -20
-250 -5 -74 -15 -193 -20 -265 -15 -191 -29 -362 -40 -515 -6 -74 -15 -189
-20 -255 -5 -66 -14 -183 -20 -260 -5 -77 -15 -201 -20 -275 -6 -74 -15 -207
-21 -295 -5 -88 -14 -227 -19 -310 -11 -163 -25 -383 -39 -625 -6 -85 -12
-195 -16 -245 -11 -177 -24 -485 -35 -785 -6 -168 -15 -415 -20 -550 -13 -316
-13 -1299 0 -1640 12 -331 29 -693 36 -785 3 -38 9 -128 14 -200 15 -215 29
-395 40 -498 15 -142 30 -281 41 -374 5 -46 13 -120 18 -165 12 -100 19 -155
31 -228 5 -30 14 -91 20 -135 6 -44 15 -105 20 -135 5 -30 14 -89 20 -130 20
-134 36 -220 131 -700 63 -324 273 -1119 416 -1580 80 -258 97 -313 158 -500
103 -317 205 -605 315 -890 28 -74 64 -169 80 -210 15 -41 46 -118 68 -170 22
-52 78 -185 125 -295 47 -110 113 -261 147 -335 81 -177 337 -696 387 -785 22
-38 66 -119 98 -180 78 -147 136 -247 305 -525 375 -617 450 -750 655 -1159
168 -337 560 -1184 722 -1561 132 -308 223 -691 313 -1320 6 -41 15 -102 20
-135 8 -55 13 -92 40 -300 5 -38 14 -109 20 -157 5 -49 14 -125 20 -170 48
-418 81 -861 101 -1383 14 -346 7 -1883 -12 -2905 -18 -935 5 -1925 61 -2600
20 -238 30 -550 32 -1022 l1 -487 -39 -78 c-21 -43 -40 -80 -41 -83 -7 -13
263 -137 312 -144 58 -8 156 -24 188 -31 15 -3 37 -7 50 -9 12 -2 40 -9 63
-15 22 -6 63 -15 90 -21 27 -5 78 -17 114 -25 36 -8 112 -24 170 -35 244 -46
280 -58 280 -97 0 -16 5 -44 10 -63 35 -117 40 -194 34 -546 -4 -192 -7 -369
-8 -394 -3 -67 -17 -140 -27 -140 -5 0 -9 -9 -9 -19 0 -11 -8 -22 -19 -26 -15
-4 -18 -14 -15 -48 8 -123 17 -478 18 -747 1 -216 7 -350 19 -458 14 -120 15
-162 6 -195 -14 -52 -79 -116 -117 -116 -15 0 -47 0 -72 0 -66 0 -158 8 -215
19 -27 6 -88 14 -135 20 -209 23 -339 49 -383 77 -7 4 -18 8 -25 9 -8 2 -21 9
-30 17 -10 8 -27 18 -39 21 -36 11 -177 156 -226 232 -43 67 -107 221 -107
260 0 10 -7 42 -14 69 -22 76 -19 17 4 -88 64 -294 187 -456 413 -547 130 -52
229 -69 617 -110 211 -22 906 -47 990 -36 14 2 79 6 145 10 118 7 159 11 440
42 77 8 181 20 230 25 405 42 612 139 733 344 44 75 86 189 108 295 20 92 15
129 -5 45 -9 -38 -20 -77 -24 -85 -3 -8 -14 -40 -23 -70 -10 -30 -20 -57 -23
-60 -3 -3 -17 -26 -30 -52 -13 -26 -48 -73 -78 -105 -30 -32 -57 -62 -61 -68
-16 -23 -104 -87 -139 -101 -21 -8 -52 -22 -70 -30 -17 -8 -40 -14 -51 -14
-12 0 -24 -5 -27 -10 -3 -6 -16 -10 -29 -10 -12 0 -27 -5 -32 -10 -10 -10 -25
-13 -124 -26 -25 -3 -52 -8 -60 -10 -22 -8 -160 -17 -280 -18 -91 -1 -111 2
-149 22 -69 36 -91 65 -120 162 -41 141 -37 90 -51 570 -12 400 -11 460 12
675 l11 110 -35 47 -36 47 -6 203 c-4 112 -8 367 -9 568 l-2 365 55 21 c30 12
98 29 150 38 52 9 160 28 240 42 80 14 156 27 170 29 14 1 53 8 88 14 35 7 75
14 90 16 15 2 65 11 112 19 47 9 105 19 130 22 25 4 81 23 125 44 44 20 83 38
87 39 8 1 62 31 95 52 20 12 20 13 -8 57 -64 100 -63 90 -56 692 6 519 13 712
37 1005 53 648 72 1764 50 2920 -18 934 -19 2249 -2 2610 19 424 61 979 92
1243 6 45 15 120 20 167 95 809 199 1385 308 1720 41 125 75 207 187 455 54
118 129 285 167 370 412 914 665 1402 1033 1990 372 596 752 1315 1000 1895
169 395 218 517 330 816 42 112 85 227 95 254 18 46 96 275 168 490 37 111 83
255 112 355 13 41 35 116 51 165 15 50 46 155 69 235 51 185 54 195 86 315 14
55 35 129 45 165 25 91 135 540 153 630 9 41 25 118 36 170 20 91 51 250 70
355 5 28 15 86 23 130 8 44 20 114 27 155 6 41 15 95 20 120 9 48 22 140 40
280 6 47 15 117 20 155 5 39 14 108 20 155 6 47 15 114 20 150 12 89 27 231
40 380 23 269 31 359 40 460 10 104 20 283 40 685 30 600 39 1547 20 2100 -6
165 -15 437 -20 605 -6 168 -15 386 -20 485 -5 99 -14 277 -20 395 -6 118 -15
283 -20 365 -5 83 -14 229 -20 325 -6 96 -15 238 -20 315 -6 77 -15 208 -20
290 -6 83 -15 209 -20 280 -5 72 -14 198 -20 280 -22 316 -34 478 -60 830 -5
74 -14 196 -20 270 -5 74 -14 196 -20 270 -5 74 -14 195 -20 268 -14 191 -28
386 -60 847 -14 199 -32 477 -45 700 -3 52 -7 124 -10 160 -2 36 -7 115 -10
175 -3 61 -7 139 -10 175 -2 36 -7 126 -10 200 -3 74 -7 164 -10 200 -2 36 -7
130 -10 210 -3 80 -7 186 -10 235 -2 50 -7 162 -10 250 -3 88 -8 214 -11 280
-8 189 -23 858 -30 1340 -7 498 -4 481 -94 670 -287 600 -968 1011 -2075 1250
-66 14 -131 28 -145 31 -13 3 -40 7 -60 10 -19 2 -42 6 -50 9 -21 6 -121 22
-275 45 -33 4 -107 15 -165 23 -97 14 -145 20 -390 47 -84 9 -225 22 -450 40
-113 9 -350 23 -680 39 -91 4 -282 9 -424 10 -143 1 -264 5 -270 9 -6 4 -131
9 -277 11 -232 3 -268 1 -275 -12z m4151 -692 c65 -6 254 -52 325 -77 170 -63
240 -114 300 -223 34 -62 42 -88 51 -162 15 -127 4 -227 -38 -358 -39 -121
-65 -154 -119 -155 -61 0 -162 103 -230 235 -21 42 -49 87 -61 99 -13 11 -23
26 -23 33 0 18 -247 263 -265 263 -2 0 -24 13 -48 30 -24 16 -68 41 -98 56
-30 15 -67 36 -84 48 -16 12 -44 28 -61 35 -17 7 -51 30 -75 52 l-44 39 35 30
c19 17 38 30 42 30 4 0 13 7 22 15 9 9 42 18 78 21 35 3 64 6 65 8 2 2 129 -8
228 -19z m-7741 -46 c20 -23 36 -45 36 -49 0 -4 -9 -17 -20 -30 -11 -13 -20
-26 -20 -30 0 -10 -75 -50 -94 -50 -9 0 -24 -4 -34 -9 -9 -6 -75 -24 -145 -42
-101 -25 -142 -30 -189 -26 -60 5 -85 16 -59 25 8 3 31 21 51 41 72 72 134
123 164 136 97 42 196 73 232 74 37 1 46 -4 78 -40z m-1034 -1499 c74 -5 239
-16 365 -25 127 -8 262 -17 300 -20 126 -9 731 -34 1150 -47 579 -18 5771 -18
6230 0 325 12 357 14 710 32 188 10 804 53 963 66 l72 7 0 -1764 c0 -970 5
-1917 10 -2104 11 -367 15 -469 60 -1295 44 -815 50 -934 57 -1316 l6 -351
-89 -16 c-586 -106 -1174 -185 -1954 -261 -362 -36 -1156 -93 -1330 -95 -30
-1 -127 -5 -215 -10 -88 -6 -167 -10 -175 -10 -8 0 -271 -5 -585 -11 -739 -16
-2365 -7 -2850 14 -1192 53 -2062 170 -2877 387 l-38 10 0 3409 0 3410 28 0
c15 0 88 -5 162 -10z m9335 -8007 c14 -71 29 -130 38 -153 5 -14 11 -41 12
-60 1 -19 5 -53 9 -75 3 -22 8 -62 11 -90 3 -27 7 -72 10 -100 6 -57 8 -81 24
-295 11 -148 16 -245 26 -445 2 -49 7 -151 11 -225 15 -286 7 -1589 -11 -1890
-3 -41 -7 -147 -10 -235 -3 -88 -8 -189 -10 -225 -3 -36 -7 -108 -10 -160 -3
-52 -7 -113 -10 -135 -2 -22 -7 -76 -10 -120 -4 -75 -23 -331 -30 -420 -5 -62
-26 -286 -30 -325 -2 -19 -14 -134 -25 -255 -11 -121 -25 -249 -30 -285 -6
-36 -17 -117 -25 -180 -8 -63 -19 -151 -25 -195 -6 -44 -17 -132 -25 -195 -8
-63 -16 -128 -19 -145 -3 -16 -10 -59 -15 -95 -26 -162 -63 -393 -76 -475 -8
-49 -17 -108 -20 -130 -3 -22 -15 -85 -25 -140 -11 -55 -36 -181 -56 -280 -74
-377 -272 -1189 -363 -1485 -11 -36 -38 -126 -59 -200 -22 -74 -55 -182 -73
-240 -47 -155 -349 -1057 -398 -1190 -24 -63 -46 -126 -51 -140 -5 -14 -20
-56 -35 -95 -14 -38 -32 -90 -41 -115 -8 -25 -19 -54 -23 -65 -5 -11 -14 -36
-21 -55 -7 -19 -16 -44 -20 -55 -4 -11 -22 -58 -40 -105 -18 -47 -43 -112 -56
-145 -12 -33 -55 -145 -95 -250 -98 -261 -118 -312 -139 -370 -10 -27 -38
-102 -63 -165 -24 -63 -78 -203 -120 -310 -70 -180 -128 -332 -227 -585 -21
-55 -62 -161 -90 -235 -28 -74 -55 -144 -60 -155 -5 -11 -18 -47 -31 -80 -12
-33 -33 -89 -46 -125 -13 -36 -45 -121 -69 -190 -25 -69 -56 -152 -69 -185
-12 -33 -34 -91 -48 -130 -54 -146 -130 -354 -167 -455 -101 -277 -216 -613
-225 -662 -2 -11 -13 -50 -24 -87 -11 -36 -38 -145 -60 -241 -22 -96 -46 -195
-54 -220 l-14 -45 -8 60 c-14 99 -6 408 10 435 2 3 6 30 10 60 3 30 10 78 15
105 5 28 12 70 15 94 3 23 7 46 10 50 2 5 13 46 24 92 10 46 33 138 51 204 17
66 63 242 101 390 38 149 90 349 115 445 25 96 47 182 49 190 2 8 24 94 50
190 25 96 57 220 71 275 13 55 29 111 34 125 5 14 12 37 14 52 3 15 7 32 10
37 3 5 12 37 20 72 8 35 28 116 46 179 48 176 76 285 136 520 31 118 57 217
59 220 2 4 7 21 10 39 3 17 12 57 21 89 8 31 39 152 69 267 87 339 132 513
160 620 14 55 33 129 41 165 20 85 29 122 48 195 19 72 127 521 149 620 44
191 72 311 99 425 31 127 73 318 89 400 4 25 11 56 14 70 3 14 10 45 15 70 5
25 25 122 45 215 50 236 94 456 100 496 5 36 20 125 35 199 67 348 95 517 135
815 8 55 19 129 25 165 9 56 22 148 35 240 2 14 9 63 15 110 22 167 30 227 49
360 11 74 25 176 31 225 6 50 18 133 26 186 8 53 19 141 24 195 25 238 29 275
43 379 9 61 21 155 28 210 6 55 14 109 16 120 2 11 6 38 8 60 2 22 14 110 25
195 12 85 25 191 30 235 5 44 16 132 25 195 8 63 17 131 19 150 3 19 12 82 20
140 16 114 20 146 36 290 24 213 51 436 55 450 3 8 7 35 10 60 2 25 9 77 15
115 6 39 15 99 19 135 24 180 43 309 51 341 6 20 10 52 10 72 0 19 5 57 10 84
6 26 28 165 50 308 22 143 45 289 50 325 6 36 12 81 14 100 7 65 44 265 55
291 5 15 7 29 5 32 -5 5 1 35 26 127 5 19 14 62 19 95 6 33 18 94 27 135 8 41
22 109 30 150 18 94 32 164 44 215 35 156 54 240 70 310 24 102 30 129 27 135
-1 3 6 18 16 33 9 15 15 27 11 27 -3 0 1 11 10 25 9 13 16 30 16 37 0 7 9 30
20 51 11 20 21 40 21 44 5 25 24 51 50 68 16 11 29 23 29 28 0 20 20 4 25 -20z
m-5890 -18627 c39 -8 90 -17 115 -20 52 -6 73 -10 195 -38 55 -12 139 -22 215
-25 69 -2 135 -6 147 -9 28 -5 63 -42 63 -66 0 -16 11 -22 32 -19 4 0 17 -13
29 -30 21 -30 22 -37 15 -192 -3 -89 -9 -277 -12 -417 -3 -140 -7 -270 -9
-288 -2 -19 -6 -120 -10 -225 -3 -106 -8 -226 -10 -267 -7 -126 -15 -325 -20
-525 -3 -104 -7 -230 -10 -280 -2 -49 -9 -214 -15 -365 -13 -360 -29 -715 -37
-865 -9 -171 -7 -472 6 -990 6 -247 15 -697 21 -1000 5 -302 12 -570 15 -595
2 -25 5 -206 6 -403 0 -407 9 -367 -91 -414 -47 -22 -67 -25 -145 -24 -111 2
-189 9 -252 20 -26 5 -51 7 -55 5 -18 -11 -231 36 -272 60 -39 23 -61 49 -58
67 1 4 -9 18 -21 31 -30 33 -44 122 -34 223 19 205 25 418 21 740 -3 193 -7
370 -10 395 -2 25 -6 92 -9 150 -6 118 -13 215 -19 275 -3 22 -6 67 -7 100 -1
33 -5 94 -9 135 -5 41 -11 134 -15 205 -3 72 -8 157 -10 190 -2 33 -7 116 -11
185 -8 152 -10 168 -17 200 -10 40 -14 445 -6 565 4 61 8 198 9 306 1 108 6
218 10 245 5 27 11 126 15 219 10 307 25 487 46 566 5 20 9 46 9 58 0 12 4 20
9 16 6 -3 10 45 11 117 1 68 3 152 5 188 2 36 6 171 10 301 8 253 9 274 19
509 4 85 9 238 11 340 2 102 6 284 9 405 2 121 7 228 11 238 9 21 20 21 110 3z
m2432 -78 c28 -16 56 -34 61 -41 6 -7 13 -86 17 -177 3 -91 8 -190 10 -220 9
-139 16 -272 25 -480 6 -124 17 -319 25 -435 8 -115 17 -246 20 -290 3 -44 10
-107 15 -140 5 -33 14 -123 20 -200 7 -77 16 -165 20 -195 5 -30 14 -116 20
-190 6 -74 15 -175 20 -225 5 -49 12 -196 15 -325 11 -421 28 -689 46 -700 4
-3 9 -55 10 -115 1 -61 5 -136 10 -169 6 -36 6 -63 0 -70 -10 -12 -20 -134
-36 -451 -5 -104 -12 -217 -20 -320 -7 -101 -15 -216 -20 -295 -3 -41 -7 -104
-10 -140 -2 -36 -7 -114 -10 -175 -4 -60 -8 -135 -10 -165 -9 -129 -6 -849 4
-910 9 -56 23 -195 22 -225 -1 -35 -22 -96 -44 -128 -14 -21 -29 -46 -32 -56
-8 -26 -71 -56 -160 -75 -44 -10 -93 -22 -110 -26 -117 -34 -288 -54 -458 -55
l-179 0 -24 28 c-46 53 -47 68 -39 802 3 380 8 749 11 820 12 385 16 2103 5
2745 -6 393 -14 879 -16 1080 -6 426 -13 832 -21 1152 l-6 227 28 29 c45 44
145 70 379 97 72 8 155 20 185 26 30 6 71 13 90 15 19 3 36 6 38 8 7 7 48 -8
99 -36z"/>
<path d="M8562 1995 c0 -16 2 -22 5 -12 2 9 2 23 0 30 -3 6 -5 -1 -5 -18z"/>
<path d="M4812 1700 c0 -19 2 -27 5 -17 2 9 2 25 0 35 -3 9 -5 1 -5 -18z"/>
<path d="M8553 1675 c0 -22 2 -30 4 -17 2 12 2 30 0 40 -3 9 -5 -1 -4 -23z"/>
<path d="M4822 1610 c0 -14 2 -19 5 -12 2 6 2 18 0 25 -3 6 -5 1 -5 -13z"/>
<path d="M8542 1570 c0 -14 2 -19 5 -12 2 6 2 18 0 25 -3 6 -5 1 -5 -13z"/>
</g>
</svg>
